<svg xmlns="http://www.w3.org/2000/svg" xml:space="preserve" viewBox="0 0 256 256"><g stroke-width="0" stroke-miterlimit="10" fill="#000"><path d="M128 118.25c-.42 0-.84-.1-1.22-.28L12.9 62.63a2.8 2.8 0 0 1 0-5.04L126.78 2.25a2.8 2.8 0 0 1 2.44 0L243.1 57.59a2.8 2.8 0 0 1 0 5.03l-113.88 55.35c-.38.19-.8.28-1.22.28zM20.53 60.11 128 112.34 235.47 60.1 128 7.88 20.53 60.1z"/><path d="M128 254.04c-.42 0-.84-.1-1.22-.29L12.9 198.41a2.8 2.8 0 0 1-1.58-2.51V60.1a2.8 2.8 0 0 1 4.03-2.51L128 112.34l112.65-54.75a2.8 2.8 0 0 1 4.03 2.52V195.9a2.8 2.8 0 0 1-1.58 2.51l-113.88 55.34c-.38.2-.8.29-1.22.29zm-111.08-59.9L128 248.12l111.07-53.98V64.58l-109.85 53.39a2.8 2.8 0 0 1-2.44 0L16.92 64.58v129.56z"/><path d="M128 254.04a2.8 2.8 0 0 1-2.8-2.8V115.45a2.8 2.8 0 0 1 5.6 0v135.79a2.8 2.8 0 0 1-2.8 2.8z"/></g></svg>